<svg xmlns="http://www.w3.org/2000/svg" viewBox="0 0 478.4 478.4"><path fill="#FFF" d="M434 27.4H237.6c-24.5 0-44.5 19.9-44.5 44.5v70H225v-70c0-7 5.7-12.6 12.6-12.6H434c7 0 12.6 5.7 12.6 12.6v196.4c0 7-5.7 12.6-12.6 12.6H309.2v31.9H434c24.5 0 44.5-19.9 44.5-44.5V71.8c-.1-24.5-20-44.4-44.5-44.4z"/><path fill="#FFF" d="M335.8 199.2c16.1 0 29.2-13.1 29.2-29.2s-13.1-29.2-29.2-29.2-29.2 13.1-29.2 29.2 13 29.2 29.2 29.2zM228.7 364c0-16.1-13.1-29.2-29.2-29.2s-29.2 13.1-29.2 29.2 13.1 29.2 29.2 29.2 29.2-13.1 29.2-29.2z"/><path fill="#FFF" d="M240.9 165.7H44.5c-24.6 0-44.5 20-44.5 44.5v196.4c0 24.5 19.9 44.5 44.5 44.5h196.4c24.5 0 44.5-19.9 44.5-44.5V210.2c-.1-24.5-20-44.5-44.5-44.5zm12.6 240.9c0 7-5.7 12.6-12.6 12.6H44.5c-7 0-12.6-5.7-12.6-12.6V210.2c0-7 5.7-12.6 12.6-12.6h196.4c7 0 12.6 5.7 12.6 12.6v196.4z"/><path fill="#FFF" d="M87.3 224.8c-16.1 0-29.2 13.1-29.2 29.2s13.1 29.2 29.2 29.2 29.2-13.1 29.2-29.2-13.1-29.2-29.2-29.2z"/></svg>